<?xml version="1.0" standalone="no"?>
<!DOCTYPE svg PUBLIC "-//W3C//DTD SVG 20010904//EN"
 "http://www.w3.org/TR/2001/REC-SVG-20010904/DTD/svg10.dtd">
<svg version="1.0" xmlns="http://www.w3.org/2000/svg"
 width="1175.000000pt" height="1172.000000pt" viewBox="0 0 1175.000000 1172.000000"
 preserveAspectRatio="xMidYMid meet">

<g transform="translate(0.000000,1172.000000) scale(0.100000,-0.100000)"
fill="#23324F" stroke="none">
<path d="M1895 11710 c-414 -17 -634 -60 -887 -173 -449 -200 -812 -650 -919
-1140 -50 -229 -72 -645 -67 -1317 l3 -435 50 -3 c115 -6 585 -44 775 -63
1657 -164 2955 -472 4066 -965 5 -3 62 62 124 143 918 1188 1959 2366 3155
3571 l390 392 -3255 -1 c-1790 -1 -3336 -5 -3435 -9z"/>
<path d="M8680 11341 c-1154 -1135 -2274 -2381 -3200 -3561 -84 -107 -175
-223 -202 -257 l-48 -61 107 -57 c382 -204 776 -478 1075 -749 816 -738 1274
-1715 1334 -2849 4 -70 10 -127 13 -127 3 0 148 9 321 20 1109 71 2197 173
3328 312 l342 42 0 2765 c0 2635 -4 3081 -30 3326 -37 355 -137 618 -333 885
-236 319 -615 557 -1004 629 -218 41 -554 60 -1043 61 l-276 0 -384 -379z"/>
<path d="M20 6041 l0 -2270 53 -6 c226 -25 1796 -119 2126 -126 74 -2 86 0 96
17 7 10 81 138 165 284 575 993 1341 2160 2024 3080 71 96 153 207 182 247
l54 71 -143 61 c-964 409 -2246 700 -3727 846 -272 27 -740 65 -796 65 l-34 0
0 -2269z"/>
<path d="M4802 6893 c-620 -843 -1142 -1615 -1654 -2448 -126 -205 -383 -638
-456 -766 l-32 -57 167 -6 c893 -35 2498 -34 3593 4 373 13 994 41 998 45 2 2
-1 76 -7 166 -95 1369 -747 2397 -1996 3146 -140 84 -375 213 -388 213 -3 0
-104 -134 -225 -297z"/>
<path d="M11460 3684 c-1012 -131 -2516 -270 -3586 -330 l-121 -7 -7 -131
c-48 -913 -339 -2023 -820 -3134 l-36 -83 1603 4 c1427 3 1615 5 1724 20 349
48 586 141 843 330 319 236 557 615 629 1004 50 264 61 546 61 1566 0 753 -1
797 -17 796 -10 -1 -133 -17 -273 -35z"/>
<path d="M20 2780 c1 -1080 21 -1366 119 -1638 71 -197 126 -301 244 -462 63
-85 258 -290 276 -290 4 0 61 120 126 267 383 864 890 1890 1281 2589 l34 62
-127 6 c-695 35 -1163 63 -1655 99 l-298 22 0 -655z"/>
<path d="M7080 3315 c-351 -18 -819 -34 -1300 -45 -540 -13 -1929 -13 -2470 1
-239 5 -527 11 -638 12 l-204 2 -100 -180 c-269 -483 -694 -1313 -922 -1800
-172 -367 -496 -1086 -496 -1102 0 -17 280 -119 393 -144 251 -55 129 -53
2758 -56 l2427 -4 47 108 c479 1092 774 2158 830 2998 3 50 8 120 11 158 l6
67 -43 -1 c-24 -1 -159 -8 -299 -14z"/>
</g>
</svg>
