<?xml version="1.0" standalone="no"?>
<!DOCTYPE svg PUBLIC "-//W3C//DTD SVG 20010904//EN"
 "http://www.w3.org/TR/2001/REC-SVG-20010904/DTD/svg10.dtd">
<svg version="1.0" xmlns="http://www.w3.org/2000/svg"
 width="2800.000000pt" height="486.000000pt" viewBox="0 0 2800.000000 486.000000"
 preserveAspectRatio="xMidYMid meet">

<g transform="translate(0.000000,486.000000) scale(0.100000,-0.100000)"
fill="#000" stroke="#FFF" stroke-width="140">
<path d="M0 4427 l0 -424 203 -6 c111 -4 345 -7 520 -7 272 0 321 -2 334 -15
13 -13 14 -43 8 -203 -30 -887 -154 -2180 -309 -3219 -63 -425 -72 -501 -57
-516 9 -9 146 -13 551 -15 297 -1 540 -1 540 1 0 2 16 111 35 243 199 1344
299 2498 345 4004 5 179 12 377 16 441 l6 116 -33 8 c-19 4 -512 9 -1096 12
l-1063 5 0 -425z"/>
<path d="M2440 2430 l0 -2420 513 0 514 0 6 398 c4 218 7 602 7 852 0 250 3
519 7 598 l6 142 132 0 132 0 6 -202 c4 -112 7 -381 7 -598 0 -217 3 -574 7
-792 l6 -398 504 0 503 0 0 2420 0 2420 -503 0 -504 0 -6 -367 c-4 -203 -7
-542 -7 -754 0 -212 -3 -474 -7 -582 l-6 -197 -132 0 -132 0 -6 137 c-4 75 -7
337 -7 582 0 245 -3 611 -7 814 l-6 367 -514 0 -513 0 0 -2420z"/>
<path d="M5410 3755 l0 -1095 1570 0 1570 0 0 1095 0 1095 -554 0 -553 0 -6
-67 c-4 -38 -7 -110 -7 -160 l0 -93 -445 0 -445 0 0 58 c0 31 -5 103 -12 160
l-12 102 -553 0 -553 0 0 -1095z m1620 592 c5 -29 19 -96 29 -150 29 -146 84
-252 180 -347 117 -117 253 -178 448 -202 105 -13 147 -34 125 -61 -18 -21
-100 -54 -179 -72 -198 -45 -319 -102 -397 -186 -99 -106 -157 -236 -182 -403
-24 -162 -41 -211 -69 -200 -14 6 -23 36 -61 209 -14 66 -37 147 -51 179 -94
225 -280 362 -550 406 -89 15 -158 37 -174 57 -11 13 -10 18 9 33 23 19 40 23
232 61 141 27 246 77 330 156 106 99 160 206 212 416 34 142 53 184 73 167 8
-6 19 -35 25 -63z"/>
<path d="M8890 3755 l0 -1095 554 0 553 0 7 38 c3 20 6 157 6 303 l0 267 123
6 c67 3 182 8 255 12 l132 6 0 463 0 462 -97 6 c-54 4 -169 7 -255 7 l-158 0
0 279 c0 153 -3 293 -6 310 l-6 31 -554 0 -554 0 0 -1095z"/>
<path d="M12120 3610 l0 -1240 1620 0 1620 0 -1 408 c-1 388 -7 584 -20 596
-3 3 -72 -6 -155 -19 -428 -71 -1316 -133 -1718 -121 -116 4 -212 8 -214 11
-2 2 -7 364 -10 805 l-5 800 -558 0 -559 0 0 -1240z"/>
<path d="M15600 3590 l0 -1260 553 0 554 0 6 158 c4 86 7 263 7 393 l0 237
123 6 c67 3 184 9 260 12 l137 6 0 463 0 463 -137 6 c-76 3 -193 9 -260 12
l-123 6 0 228 c0 125 -3 295 -7 378 l-6 152 -554 0 -553 0 0 -1260z"/>
<path d="M18301 4798 c-27 -134 -901 -4769 -901 -4778 0 -8 160 -10 558 -8
581 3 588 4 611 46 5 10 41 245 81 522 280 1984 385 2707 399 2724 4 6 11 28
15 49 17 92 18 85 172 -938 101 -669 268 -1824 309 -2140 14 -104 28 -205 31
-222 l6 -33 553 0 c336 0 564 4 579 10 18 7 26 17 26 34 0 28 -53 319 -171
940 -87 458 -199 1107 -199 1152 0 12 58 14 390 14 l390 0 0 -1080 0 -1080
555 0 555 0 0 2420 0 2420 -555 0 -555 0 0 -859 0 -859 -22 -6 c-43 -11 -867
-7 -913 5 -40 10 -45 15 -51 48 -3 20 -26 128 -50 241 -24 113 -86 435 -138
715 -132 708 -125 677 -161 695 -26 13 -133 15 -767 18 l-736 3 -11 -53z"/>
<path d="M22860 4426 l0 -424 254 -4 c140 -1 257 -5 260 -8 9 -10 -80 -299
-288 -937 -113 -348 -206 -640 -206 -648 0 -13 65 -15 566 -13 l567 3 13 45
c8 25 87 297 175 605 230 803 278 951 299 929 14 -15 83 -245 279 -924 l188
-655 561 0 c308 0 563 3 567 7 9 8 14 -8 -210 668 -190 576 -275 853 -275 894
0 32 29 36 293 36 l217 0 0 425 0 425 -1630 0 -1630 0 0 -424z"/>
<path d="M26370 3620 l0 -1230 560 0 560 0 0 394 0 394 123 6 c67 3 182 8 255
12 l132 6 0 463 0 463 -137 6 c-76 4 -193 9 -260 12 l-122 6 6 349 6 349 -561
0 -562 0 0 -1230z"/>
<path d="M5410 2112 l0 -339 683 -6 c375 -4 1156 -7 1735 -7 l1052 0 0 -105 0
-105 -1073 0 c-591 0 -1371 -3 -1735 -7 l-662 -6 0 -764 0 -763 2310 0 2310 0
0 450 0 450 -27 -5 c-197 -36 -913 -121 -1253 -150 -483 -40 -854 -55 -1581
-62 l-626 -6 -7 50 c-3 28 -4 76 0 106 l6 54 162 7 c88 3 312 8 496 11 572 10
1070 36 1690 90 472 42 1082 114 1098 130 13 12 20 303 21 808 l1 507 -2300 0
-2300 0 0 -338z"/>
<path d="M23641 2145 c-209 -46 -409 -162 -531 -307 -152 -181 -225 -390 -237
-679 -20 -502 159 -866 512 -1042 122 -61 189 -76 384 -87 98 -5 797 -10 1588
-10 l1412 0 158 79 c242 122 359 228 448 406 91 183 127 427 107 724 -17 240
-60 376 -175 546 -122 179 -312 305 -547 361 -70 17 -173 18 -1565 20 -1248 2
-1500 0 -1554 -11z m1578 -182 c40 -219 93 -339 198 -453 226 -244 669 -374
1383 -405 290 -13 263 -28 -97 -55 -325 -25 -502 -50 -679 -95 -334 -86 -565
-219 -680 -393 -54 -81 -101 -226 -124 -383 -26 -184 -42 -193 -54 -33 -8 103
-50 254 -95 348 -93 192 -274 321 -591 424 -218 70 -408 101 -811 132 -376 29
-380 40 -19 60 670 36 1092 165 1314 400 100 107 159 237 191 425 31 185 35
187 64 28z"/>
<path d="M12120 1682 l0 -429 677 -6 c372 -4 1152 -7 1733 -7 l1057 0 6 -217
c4 -120 7 -397 7 -615 l0 -398 555 0 555 0 0 1050 0 1050 -2295 0 -2295 0 0
-428z"/>
</g>
</svg>
